<svg width="800" height="300" viewBox="0 0 800 300" fill="none" xmlns="http://www.w3.org/2000/svg">
<rect width="800" height="300" fill="#69B5E0"/>
<image width="350" height="350" href="https://media.giphy.com/media/lSp0jOljE1e0SdrjSJ/giphy.gif" style="y:-40; x:-20" />
<path d="M489.022 0H800V300H280.447L489.022 0Z" fill="#393B44"/>
<path d="M412.673 218.223C409.012 219.619 405.066 220.317 400.834 220.317C384.394 220.317 376.174 212.436 376.174 196.672C376.174 181.755 384.108 174.297 399.978 174.297C404.527 174.297 408.758 174.932 412.673 176.201V181.279C408.758 179.798 404.738 179.058 400.612 179.058C388.234 179.058 382.045 184.929 382.045 196.672C382.045 209.262 388.139 215.557 400.327 215.557C402.273 215.557 404.431 215.303 406.801 214.795V199.37H412.673V218.223ZM433.218 186.675C442.697 186.675 447.436 191.361 447.436 200.735C447.436 202.068 447.341 203.496 447.151 205.02H423.76C423.76 211.833 427.738 215.239 435.693 215.239C439.481 215.239 442.845 214.816 445.786 213.97V218.73C442.845 219.577 439.269 220 435.058 220C423.612 220 417.888 214.319 417.888 202.957C417.888 192.102 422.998 186.675 433.218 186.675ZM423.76 200.132H441.787C441.66 194.292 438.804 191.372 433.218 191.372C427.293 191.372 424.141 194.292 423.76 200.132ZM453.064 220V186.675H457.032L458.079 190.928C460.999 188.092 464.511 186.675 468.616 186.675V191.562C464.638 191.562 461.411 192.97 458.936 195.784V220H453.064ZM470.657 209.939C470.657 203.105 475.164 199.688 484.178 199.688C487.077 199.688 489.975 199.899 492.874 200.322V197.18C492.874 193.35 489.88 191.436 483.892 191.436C480.465 191.436 476.952 191.965 473.355 193.022V188.262C476.952 187.204 480.465 186.675 483.892 186.675C493.795 186.675 498.746 190.124 498.746 197.021V220H495.445L493.414 216.699C490.092 218.9 486.474 220 482.559 220C474.625 220 470.657 216.646 470.657 209.939ZM484.178 204.448C479.079 204.448 476.529 206.247 476.529 209.844C476.529 213.441 478.539 215.239 482.559 215.239C486.622 215.239 490.06 214.16 492.874 212.002V205.083C489.975 204.66 487.077 204.448 484.178 204.448ZM512.213 174.614V220H506.341V174.614H512.213ZM542.184 193.467C539.814 192.324 537.106 191.753 534.059 191.753C527.352 191.753 523.998 195.318 523.998 202.449C523.998 210.891 527.352 215.112 534.059 215.112C537.106 215.112 539.814 214.7 542.184 213.875V193.467ZM548.056 218C544.014 219.333 539.031 220 533.107 220C523.183 220 518.222 214.224 518.222 202.671C518.222 192.007 523.49 186.675 534.027 186.675C536.905 186.675 539.624 187.204 542.184 188.262V174.614H548.056V218ZM559.587 203.21C559.587 211.23 562.919 215.239 569.584 215.239C576.249 215.239 579.582 211.23 579.582 203.21C579.582 195.361 576.249 191.436 569.584 191.436C562.919 191.436 559.587 195.361 559.587 203.21ZM553.715 203.337C553.715 192.229 559.005 186.675 569.584 186.675C580.164 186.675 585.454 192.229 585.454 203.337C585.454 214.425 580.164 219.968 569.584 219.968C559.047 219.968 553.758 214.425 553.715 203.337ZM383.632 247.436V276H377.761V241.056C377.761 232.571 382.437 228.329 391.789 228.329C394.73 228.329 397.84 228.964 401.12 230.233V234.994C397.967 233.725 394.847 233.09 391.757 233.09C386.341 233.09 383.632 235.555 383.632 240.485V242.675H403.5V276H397.629V247.436H383.632ZM433.694 248.324C431.684 247.816 429.197 247.562 426.235 247.562C419.147 247.562 415.603 251.403 415.603 259.083C415.603 266.976 418.957 270.922 425.664 270.922C428.711 270.922 431.387 270.351 433.694 269.208V248.324ZM439.565 276C439.565 284.04 434.455 288.061 424.236 288.061C420.131 288.061 416.492 287.532 413.318 286.474V281.713C416.555 282.771 420.216 283.3 424.299 283.3C430.562 283.3 433.694 280.867 433.694 276V274.413C431.197 275.471 428.51 276 425.632 276C415.095 276 409.827 270.382 409.827 259.147C409.827 248.166 415.381 242.675 426.489 242.675C430.996 242.675 435.355 243.13 439.565 244.04V276ZM475.567 242.675V276H471.536L470.52 271.747C466.479 274.582 462.416 276 458.333 276C450.673 276 446.844 271.863 446.844 263.59V242.675H452.715V263.686C452.715 268.637 455.17 271.112 460.078 271.112C463.443 271.112 466.648 269.705 469.695 266.891V242.675H475.567ZM496.588 242.675C506.067 242.675 510.806 247.361 510.806 256.735C510.806 258.068 510.711 259.496 510.521 261.02H487.13C487.13 267.833 491.107 271.239 499.063 271.239C502.851 271.239 506.215 270.816 509.156 269.97V274.73C506.215 275.577 502.639 276 498.428 276C486.981 276 481.258 270.319 481.258 258.957C481.258 248.102 486.368 242.675 496.588 242.675ZM487.13 256.132H505.157C505.03 250.292 502.174 247.372 496.588 247.372C490.663 247.372 487.51 250.292 487.13 256.132ZM522.941 242.675V276H517.069V242.675H522.941ZM522.941 230.614V236.168H517.069V230.614H522.941ZM530.854 276V242.675H534.821L535.868 246.928C538.788 244.092 542.3 242.675 546.405 242.675V247.562C542.427 247.562 539.201 248.97 536.725 251.784V276H530.854ZM563.776 242.675C573.255 242.675 577.995 247.361 577.995 256.735C577.995 258.068 577.9 259.496 577.709 261.02H554.318C554.318 267.833 558.296 271.239 566.252 271.239C570.039 271.239 573.404 270.816 576.345 269.97V274.73C573.404 275.577 569.828 276 565.617 276C554.17 276 548.447 270.319 548.447 258.957C548.447 248.102 553.557 242.675 563.776 242.675ZM554.318 256.132H572.346C572.219 250.292 569.362 247.372 563.776 247.372C557.852 247.372 554.699 250.292 554.318 256.132ZM605.998 249.467C603.629 248.324 600.92 247.753 597.873 247.753C591.166 247.753 587.812 251.318 587.812 258.449C587.812 266.891 591.166 271.112 597.873 271.112C600.92 271.112 603.629 270.7 605.998 269.875V249.467ZM611.87 274C607.829 275.333 602.846 276 596.921 276C586.998 276 582.036 270.224 582.036 258.671C582.036 248.007 587.304 242.675 597.842 242.675C600.719 242.675 603.438 243.204 605.998 244.262V230.614H611.87V274ZM623.401 259.21C623.401 267.23 626.734 271.239 633.399 271.239C640.064 271.239 643.396 267.23 643.396 259.21C643.396 251.361 640.064 247.436 633.399 247.436C626.734 247.436 623.401 251.361 623.401 259.21ZM617.529 259.337C617.529 248.229 622.819 242.675 633.399 242.675C643.978 242.675 649.268 248.229 649.268 259.337C649.268 270.425 643.978 275.968 633.399 275.968C622.862 275.968 617.572 270.425 617.529 259.337Z" fill="#69B5E0"/>
<path d="M669.637 70H682.363C683.817 70 685 68.8172 685 67.3633V54.6367C685 53.1828 683.817 52 682.363 52H669.637C668.183 52 667 53.1828 667 54.6367V67.3633C667 68.8172 668.183 70 669.637 70ZM668.055 54.6367C668.055 53.7644 668.764 53.0547 669.637 53.0547H682.363C683.236 53.0547 683.945 53.7644 683.945 54.6367V67.3633C683.945 68.2356 683.236 68.9453 682.363 68.9453H669.637C668.764 68.9453 668.055 68.2356 668.055 67.3633V54.6367Z" fill="#69B5E0"/>
<path d="M676 65.7461C678.617 65.7461 680.746 63.6169 680.746 61C680.746 58.3831 678.617 56.2539 676 56.2539C673.383 56.2539 671.254 58.3831 671.254 61C671.254 63.6169 673.383 65.7461 676 65.7461ZM676 57.3086C678.035 57.3086 679.691 58.9645 679.691 61C679.691 63.0355 678.035 64.6914 676 64.6914C673.965 64.6914 672.309 63.0355 672.309 61C672.309 58.9645 673.965 57.3086 676 57.3086Z" fill="#69B5E0"/>
<path d="M681.273 57.3086C682.146 57.3086 682.855 56.5989 682.855 55.7266C682.855 54.8542 682.146 54.1445 681.273 54.1445C680.401 54.1445 679.691 54.8542 679.691 55.7266C679.691 56.5989 680.401 57.3086 681.273 57.3086ZM681.273 55.1992C681.564 55.1992 681.801 55.4358 681.801 55.7266C681.801 56.0173 681.564 56.2539 681.273 56.2539C680.983 56.2539 680.746 56.0173 680.746 55.7266C680.746 55.4358 680.983 55.1992 681.273 55.1992Z" fill="#69B5E0"/>
<path d="M694.67 62.2422C694.416 62.1484 694.055 62.1016 693.586 62.1016C692.512 62.1016 691.975 62.6934 691.975 63.877C691.975 65.0215 692.438 65.5938 693.363 65.5938C693.809 65.5938 694.244 65.4883 694.67 65.2773V62.2422ZM696.223 66.5312C696.223 68.3281 695.143 69.2266 692.982 69.2266C692.225 69.2266 691.553 69.1289 690.967 68.9336V67.7031C691.564 67.8984 692.24 67.9961 692.994 67.9961C694.111 67.9961 694.67 67.5273 694.67 66.5898C694.209 66.7852 693.713 66.8828 693.182 66.8828C691.354 66.8828 690.439 65.8848 690.439 63.8887C690.439 61.8613 691.504 60.8477 693.633 60.8477C694.348 60.8477 695.211 60.9316 696.223 61.0996V66.5312ZM700.169 60.8477C702.036 60.8477 702.97 61.8008 702.97 63.707C702.97 63.9609 702.952 64.2148 702.917 64.4688H698.833C698.833 65.3359 699.47 65.7695 700.743 65.7695C701.364 65.7695 701.985 65.7109 702.607 65.5938V66.8242C702.064 66.9414 701.403 67 700.626 67C698.396 67 697.28 65.9512 697.28 63.8535C697.28 61.8496 698.243 60.8477 700.169 60.8477ZM698.833 63.3906H701.458V63.3438C701.458 62.4922 701.028 62.0664 700.169 62.0664C699.349 62.0664 698.903 62.5078 698.833 63.3906ZM704.016 67V60.8477H705.217L705.41 61.6328C705.949 61.1094 706.52 60.8477 707.121 60.8477V62.1016C706.543 62.1016 706.026 62.3418 705.569 62.8223V67H704.016ZM707.587 65.084C707.587 63.8613 708.478 63.25 710.259 63.25C710.677 63.25 711.095 63.2891 711.513 63.3672V62.9043C711.513 62.3535 711.117 62.0781 710.324 62.0781C709.652 62.0781 708.906 62.1758 708.085 62.3711V61.1406C708.906 60.9453 709.652 60.8477 710.324 60.8477C712.152 60.8477 713.066 61.5234 713.066 62.875V67H712.163L711.613 66.4492C711.077 66.8164 710.488 67 709.843 67C708.339 67 707.587 66.3613 707.587 65.084ZM711.513 64.4219C711.122 64.3438 710.704 64.3047 710.259 64.3047C709.513 64.3047 709.14 64.5586 709.14 65.0664C709.14 65.6133 709.452 65.8867 710.077 65.8867C710.593 65.8867 711.072 65.7266 711.513 65.4062V64.4219ZM715.969 58.6211V67H714.416V58.6211H715.969ZM721.216 62.4531C720.896 62.2422 720.494 62.1367 720.009 62.1367C719.045 62.1367 718.562 62.6777 718.562 63.7598C718.562 65.0449 719.064 65.6875 720.068 65.6875C720.474 65.6875 720.857 65.6309 721.216 65.5176V62.4531ZM722.769 66.6309C721.828 66.877 720.908 67 720.009 67C718.021 67 717.027 65.9336 717.027 63.8008C717.027 61.832 718 60.8477 719.945 60.8477C720.359 60.8477 720.783 60.9453 721.216 61.1406V58.6211H722.769V66.6309ZM725.374 63.9004C725.374 65.1855 725.872 65.8281 726.868 65.8281C727.864 65.8281 728.362 65.1855 728.362 63.9004C728.362 62.6465 727.864 62.0195 726.868 62.0195C725.872 62.0195 725.374 62.6465 725.374 63.9004ZM723.821 63.9238C723.821 61.8613 724.837 60.8301 726.868 60.8301C728.899 60.8301 729.915 61.8613 729.915 63.9238C729.915 65.9824 728.899 67.0117 726.868 67.0117C724.844 67.0117 723.829 65.9824 723.821 63.9238ZM736.305 60.8477V67H734.752V62.0781H732.519V67H730.967V60.5488C730.967 58.9824 731.889 58.1992 733.732 58.1992C734.392 58.1992 735.055 58.3359 735.719 58.6094V59.8398C735.117 59.5664 734.492 59.4297 733.844 59.4297C732.961 59.4297 732.519 59.7871 732.519 60.502V60.8477H736.305ZM741.593 62.2422C741.339 62.1484 740.978 62.1016 740.509 62.1016C739.435 62.1016 738.897 62.6934 738.897 63.877C738.897 65.0215 739.36 65.5938 740.286 65.5938C740.731 65.5938 741.167 65.4883 741.593 65.2773V62.2422ZM743.145 66.5312C743.145 68.3281 742.065 69.2266 739.905 69.2266C739.147 69.2266 738.476 69.1289 737.89 68.9336V67.7031C738.487 67.8984 739.163 67.9961 739.917 67.9961C741.034 67.9961 741.593 67.5273 741.593 66.5898C741.132 66.7852 740.636 66.8828 740.104 66.8828C738.276 66.8828 737.362 65.8848 737.362 63.8887C737.362 61.8613 738.427 60.8477 740.556 60.8477C741.27 60.8477 742.134 60.9316 743.145 61.0996V66.5312ZM750.033 60.8477V67H748.82L748.633 66.2148C747.926 66.7383 747.176 67 746.383 67C745.125 67 744.496 66.2559 744.496 64.7676V60.8477H746.049V64.7266C746.049 65.4062 746.346 65.7461 746.94 65.7461C747.443 65.7461 747.957 65.5449 748.481 65.1426V60.8477H750.033ZM753.98 60.8477C755.847 60.8477 756.78 61.8008 756.78 63.707C756.78 63.9609 756.763 64.2148 756.728 64.4688H752.644C752.644 65.3359 753.28 65.7695 754.554 65.7695C755.175 65.7695 755.796 65.7109 756.417 65.5938V66.8242C755.874 66.9414 755.214 67 754.437 67C752.206 67 751.091 65.9512 751.091 63.8535C751.091 61.8496 752.054 60.8477 753.98 60.8477ZM752.644 63.3906H755.269V63.3438C755.269 62.4922 754.839 62.0664 753.98 62.0664C753.159 62.0664 752.714 62.5078 752.644 63.3906ZM757.826 67V60.8477H759.028L759.221 61.6328C759.76 61.1094 760.33 60.8477 760.932 60.8477V62.1016C760.354 62.1016 759.836 62.3418 759.379 62.8223V67H757.826Z" fill="#E4D9D9"/>
<path d="M694.67 85.2422C694.416 85.1484 694.055 85.1016 693.586 85.1016C692.512 85.1016 691.975 85.6934 691.975 86.877C691.975 88.0215 692.438 88.5938 693.363 88.5938C693.809 88.5938 694.244 88.4883 694.67 88.2773V85.2422ZM696.223 89.5312C696.223 91.3281 695.143 92.2266 692.982 92.2266C692.225 92.2266 691.553 92.1289 690.967 91.9336V90.7031C691.564 90.8984 692.24 90.9961 692.994 90.9961C694.111 90.9961 694.67 90.5273 694.67 89.5898C694.209 89.7852 693.713 89.8828 693.182 89.8828C691.354 89.8828 690.439 88.8848 690.439 86.8887C690.439 84.8613 691.504 83.8477 693.633 83.8477C694.348 83.8477 695.211 83.9316 696.223 84.0996V89.5312ZM700.169 83.8477C702.036 83.8477 702.97 84.8008 702.97 86.707C702.97 86.9609 702.952 87.2148 702.917 87.4688H698.833C698.833 88.3359 699.47 88.7695 700.743 88.7695C701.364 88.7695 701.985 88.7109 702.607 88.5938V89.8242C702.064 89.9414 701.403 90 700.626 90C698.396 90 697.28 88.9512 697.28 86.8535C697.28 84.8496 698.243 83.8477 700.169 83.8477ZM698.833 86.3906H701.458V86.3438C701.458 85.4922 701.028 85.0664 700.169 85.0664C699.349 85.0664 698.903 85.5078 698.833 86.3906ZM704.016 90V83.8477H705.217L705.41 84.6328C705.949 84.1094 706.52 83.8477 707.121 83.8477V85.1016C706.543 85.1016 706.026 85.3418 705.569 85.8223V90H704.016ZM707.587 88.084C707.587 86.8613 708.478 86.25 710.259 86.25C710.677 86.25 711.095 86.2891 711.513 86.3672V85.9043C711.513 85.3535 711.117 85.0781 710.324 85.0781C709.652 85.0781 708.906 85.1758 708.085 85.3711V84.1406C708.906 83.9453 709.652 83.8477 710.324 83.8477C712.152 83.8477 713.066 84.5234 713.066 85.875V90H712.163L711.613 89.4492C711.077 89.8164 710.488 90 709.843 90C708.339 90 707.587 89.3613 707.587 88.084ZM711.513 87.4219C711.122 87.3438 710.704 87.3047 710.259 87.3047C709.513 87.3047 709.14 87.5586 709.14 88.0664C709.14 88.6133 709.452 88.8867 710.077 88.8867C710.593 88.8867 711.072 88.7266 711.513 88.4062V87.4219ZM715.969 81.6211V90H714.416V81.6211H715.969ZM721.216 85.4531C720.896 85.2422 720.494 85.1367 720.009 85.1367C719.045 85.1367 718.562 85.6777 718.562 86.7598C718.562 88.0449 719.064 88.6875 720.068 88.6875C720.474 88.6875 720.857 88.6309 721.216 88.5176V85.4531ZM722.769 89.6309C721.828 89.877 720.908 90 720.009 90C718.021 90 717.027 88.9336 717.027 86.8008C717.027 84.832 718 83.8477 719.945 83.8477C720.359 83.8477 720.783 83.9453 721.216 84.1406V81.6211H722.769V89.6309ZM725.374 86.9004C725.374 88.1855 725.872 88.8281 726.868 88.8281C727.864 88.8281 728.362 88.1855 728.362 86.9004C728.362 85.6465 727.864 85.0195 726.868 85.0195C725.872 85.0195 725.374 85.6465 725.374 86.9004ZM723.821 86.9238C723.821 84.8613 724.837 83.8301 726.868 83.8301C728.899 83.8301 729.915 84.8613 729.915 86.9238C729.915 88.9824 728.899 90.0117 726.868 90.0117C724.844 90.0117 723.829 88.9824 723.821 86.9238ZM730.967 90V83.8477C730.967 82.1602 731.889 81.3164 733.732 81.3164C734.236 81.3164 734.693 81.3945 735.103 81.5508V82.7812C734.717 82.625 734.297 82.5469 733.844 82.5469C732.961 82.5469 732.519 82.9805 732.519 83.8477H734.365V85.0781H732.519V90H730.967ZM735.194 89.707V88.418C735.878 88.6914 736.667 88.8281 737.561 88.8281C738.229 88.8281 738.563 88.6133 738.563 88.1836C738.563 87.7734 738.339 87.5684 737.89 87.5684H736.776C735.526 87.5684 734.901 86.9531 734.901 85.7227C734.901 84.4336 735.813 83.7891 737.638 83.7891C738.411 83.7891 739.14 83.9062 739.823 84.1406V85.4297C739.14 85.1562 738.397 85.0195 737.597 85.0195C736.757 85.0195 736.337 85.2344 736.337 85.6641C736.337 86.0742 736.581 86.2793 737.069 86.2793H738.065C739.433 86.2793 740.116 86.8945 740.116 88.125C740.116 89.4141 739.245 90.0586 737.503 90.0586C736.647 90.0586 735.878 89.9414 735.194 89.707ZM740.793 88.084C740.793 86.8613 741.684 86.25 743.465 86.25C743.883 86.25 744.301 86.2891 744.719 86.3672V85.9043C744.719 85.3535 744.322 85.0781 743.529 85.0781C742.857 85.0781 742.111 85.1758 741.291 85.3711V84.1406C742.111 83.9453 742.857 83.8477 743.529 83.8477C745.357 83.8477 746.272 84.5234 746.272 85.875V90H745.369L744.818 89.4492C744.283 89.8164 743.693 90 743.049 90C741.545 90 740.793 89.3613 740.793 88.084ZM744.719 87.4219C744.328 87.3438 743.91 87.3047 743.465 87.3047C742.719 87.3047 742.346 87.5586 742.346 88.0664C742.346 88.6133 742.658 88.8867 743.283 88.8867C743.799 88.8867 744.277 88.7266 744.719 88.4062V87.4219ZM747.622 90V83.8477H748.823L749.017 84.75C749.607 84.1484 750.279 83.8477 751.032 83.8477C752.489 83.8477 753.218 84.6055 753.218 86.1211V90H751.665V86.1211C751.665 85.4414 751.327 85.1016 750.652 85.1016C750.148 85.1016 749.655 85.3027 749.175 85.7051V90H747.622ZM754.481 82.8516H755.629L755.864 83.8477H757.41V85.0781H756.034V87.9082C756.034 88.4824 756.282 88.7695 756.778 88.7695H757.41V90H756.028C754.996 90 754.481 89.4473 754.481 88.3418V82.8516ZM758.058 88.084C758.058 86.8613 758.949 86.25 760.73 86.25C761.148 86.25 761.566 86.2891 761.984 86.3672V85.9043C761.984 85.3535 761.587 85.0781 760.794 85.0781C760.122 85.0781 759.376 85.1758 758.556 85.3711V84.1406C759.376 83.9453 760.122 83.8477 760.794 83.8477C762.622 83.8477 763.537 84.5234 763.537 85.875V90H762.634L762.083 89.4492C761.548 89.8164 760.958 90 760.314 90C758.81 90 758.058 89.3613 758.058 88.084ZM761.984 87.4219C761.593 87.3438 761.175 87.3047 760.73 87.3047C759.984 87.3047 759.611 87.5586 759.611 88.0664C759.611 88.6133 759.923 88.8867 760.548 88.8867C761.064 88.8867 761.542 88.7266 761.984 88.4062V87.4219ZM764.887 90V83.8477H766.088L766.282 84.75C766.872 84.1484 767.544 83.8477 768.297 83.8477C769.754 83.8477 770.483 84.6055 770.483 86.1211V90H768.93V86.1211C768.93 85.4414 768.592 85.1016 767.917 85.1016C767.413 85.1016 766.92 85.3027 766.44 85.7051V90H764.887ZM771.541 88.084C771.541 86.8613 772.431 86.25 774.213 86.25C774.631 86.25 775.049 86.2891 775.466 86.3672V85.9043C775.466 85.3535 775.07 85.0781 774.277 85.0781C773.605 85.0781 772.859 85.1758 772.039 85.3711V84.1406C772.859 83.9453 773.605 83.8477 774.277 83.8477C776.105 83.8477 777.019 84.5234 777.019 85.875V90H776.117L775.566 89.4492C775.031 89.8164 774.441 90 773.797 90C772.293 90 771.541 89.3613 771.541 88.084ZM775.466 87.4219C775.076 87.3438 774.658 87.3047 774.213 87.3047C773.466 87.3047 773.093 87.5586 773.093 88.0664C773.093 88.6133 773.406 88.8867 774.031 88.8867C774.547 88.8867 775.025 88.7266 775.466 88.4062V87.4219Z" fill="#E4D9D9"/>
<path d="M672.017 81.1178L672.033 81.1253C672.081 81.147 672.13 81.1573 672.179 81.1573C672.313 81.1573 672.44 81.0811 672.499 80.9521C672.58 80.7756 672.503 80.5669 672.326 80.486L672.311 80.4794C672.135 80.3979 671.926 80.4749 671.845 80.6512C671.764 80.8275 671.841 81.0364 672.017 81.1178Z" fill="#69B5E0"/>
<path d="M684.917 78.787C684.817 78.6674 684.649 78.6288 684.506 78.6922C684.292 78.7871 684.074 78.8706 683.853 78.9425C684.14 78.5797 684.362 78.1658 684.507 77.718C684.552 77.5789 684.507 77.4264 684.392 77.3351C684.278 77.2437 684.119 77.2327 683.994 77.3072C683.38 77.671 682.72 77.9329 682.029 78.0871C681.308 77.394 680.334 77 679.327 77C677.178 77 675.429 78.7488 675.429 80.8985C675.429 81.0396 675.437 81.1816 675.452 81.3236C674.899 81.271 674.352 81.1717 673.82 81.0271C673.633 80.9762 673.439 81.0869 673.389 81.2743C673.338 81.4616 673.448 81.6548 673.636 81.7057C674.356 81.9014 675.102 82.0198 675.853 82.0577C675.963 82.0632 676.069 82.0171 676.14 81.9332C676.211 81.8492 676.238 81.7369 676.214 81.6298C676.16 81.3867 676.132 81.1407 676.132 80.8985C676.132 79.1365 677.565 77.7031 679.327 77.7031C680.208 77.7031 681.057 78.0704 681.657 78.7108C681.74 78.799 681.862 78.8386 681.981 78.8155C682.463 78.7217 682.933 78.5807 683.386 78.3943C683.132 78.7467 682.808 79.0465 682.43 79.2727C682.288 79.3579 682.225 79.5309 682.278 79.6879C682.332 79.8448 682.487 79.943 682.652 79.9235C682.977 79.885 683.299 79.8248 683.615 79.7436C683.327 80.0451 683.011 80.3199 682.669 80.5659C682.575 80.6336 682.52 80.7435 682.523 80.8596L682.534 81.3149C682.531 86.1009 678.888 91.05 672.793 91.05C671.4 91.05 670.035 90.7538 668.78 90.1854C670.258 90.0737 671.644 89.5375 672.82 88.618C672.937 88.5264 672.984 88.3711 672.937 88.23C672.89 88.089 672.76 87.9927 672.611 87.9896C671.434 87.965 670.381 87.3011 669.844 86.2886C669.882 86.2896 669.921 86.2902 669.959 86.2902C670.308 86.2902 670.653 86.2458 670.983 86.1582C671.141 86.1164 671.249 85.9713 671.244 85.808C671.24 85.6447 671.123 85.5063 670.963 85.4738C669.652 85.208 668.658 84.1472 668.443 82.8574C668.831 82.9991 669.233 83.0758 669.644 83.0863C669.8 83.09 669.941 82.9903 669.988 82.8409C670.035 82.6916 669.978 82.529 669.848 82.4422C668.957 81.8497 668.426 80.8564 668.426 79.7851C668.426 79.389 668.499 78.9991 668.638 78.6358C669.212 79.2687 669.859 79.8285 670.568 80.3045C670.729 80.4128 670.947 80.3698 671.056 80.2086C671.164 80.0474 671.121 79.8289 670.96 79.7207C670.157 79.1823 669.44 78.5286 668.828 77.778C668.755 77.6888 668.643 77.641 668.529 77.6497C668.414 77.6586 668.311 77.7231 668.252 77.8224C667.906 78.4128 667.723 79.0915 667.723 79.7852C667.723 80.6423 668.002 81.4585 668.5 82.1229C668.405 82.0814 668.311 82.0351 668.219 81.984C668.11 81.9238 667.977 81.9257 667.87 81.9889C667.763 82.0522 667.697 82.1673 667.697 82.2917V82.335C667.697 83.6356 668.346 84.8172 669.361 85.5322C669.359 85.5318 669.357 85.5315 669.355 85.531C669.233 85.5081 669.108 85.5509 669.026 85.6439C668.944 85.7369 668.917 85.8663 668.955 85.9843C669.367 87.2648 670.402 88.2212 671.663 88.5598C670.619 89.18 669.436 89.5042 668.196 89.5042C667.927 89.5042 667.663 89.4895 667.39 89.4591C667.228 89.4411 667.075 89.5372 667.02 89.6911C666.966 89.8451 667.024 90.0164 667.162 90.1045C668.845 91.1831 670.792 91.7532 672.793 91.7532C674.402 91.7532 675.908 91.4334 677.27 90.8027C678.518 90.2244 679.622 89.3977 680.549 88.3458C682.257 86.4084 683.237 83.8441 683.237 81.3106C683.237 81.3079 683.237 81.3051 683.237 81.3024L683.23 81.0256C683.9 80.5186 684.475 79.9081 684.941 79.2085C685.028 79.0784 685.018 78.9066 684.917 78.787Z" fill="#69B5E0"/>
<path d="M680.243 85.5375C680.077 85.4377 679.861 85.4916 679.761 85.6581L679.76 85.6591C679.66 85.8256 679.715 86.0411 679.881 86.141C679.938 86.1749 680 86.191 680.061 86.191C680.181 86.191 680.298 86.1299 680.364 86.0199C680.464 85.8534 680.41 85.6374 680.243 85.5375Z" fill="#69B5E0"/>
<path d="M679.557 86.5955C679.407 86.472 679.186 86.4933 679.062 86.6432C678.447 87.3898 677.719 88.0059 676.9 88.4743C676.731 88.5707 676.673 88.7854 676.769 88.954C676.834 89.0675 676.953 89.1312 677.075 89.1312C677.134 89.1312 677.194 89.1162 677.249 89.0848C678.142 88.574 678.935 87.903 679.605 87.0904C679.728 86.9406 679.707 86.719 679.557 86.5955Z" fill="#69B5E0"/>
<path d="M694.67 109.242C694.416 109.148 694.055 109.102 693.586 109.102C692.512 109.102 691.975 109.693 691.975 110.877C691.975 112.021 692.438 112.594 693.363 112.594C693.809 112.594 694.244 112.488 694.67 112.277V109.242ZM696.223 113.531C696.223 115.328 695.143 116.227 692.982 116.227C692.225 116.227 691.553 116.129 690.967 115.934V114.703C691.564 114.898 692.24 114.996 692.994 114.996C694.111 114.996 694.67 114.527 694.67 113.59C694.209 113.785 693.713 113.883 693.182 113.883C691.354 113.883 690.439 112.885 690.439 110.889C690.439 108.861 691.504 107.848 693.633 107.848C694.348 107.848 695.211 107.932 696.223 108.1V113.531ZM700.169 107.848C702.036 107.848 702.97 108.801 702.97 110.707C702.97 110.961 702.952 111.215 702.917 111.469H698.833C698.833 112.336 699.47 112.77 700.743 112.77C701.364 112.77 701.985 112.711 702.607 112.594V113.824C702.064 113.941 701.403 114 700.626 114C698.396 114 697.28 112.951 697.28 110.854C697.28 108.85 698.243 107.848 700.169 107.848ZM698.833 110.391H701.458V110.344C701.458 109.492 701.028 109.066 700.169 109.066C699.349 109.066 698.903 109.508 698.833 110.391ZM704.016 114V107.848H705.217L705.41 108.633C705.949 108.109 706.52 107.848 707.121 107.848V109.102C706.543 109.102 706.026 109.342 705.569 109.822V114H704.016ZM707.587 112.084C707.587 110.861 708.478 110.25 710.259 110.25C710.677 110.25 711.095 110.289 711.513 110.367V109.904C711.513 109.354 711.117 109.078 710.324 109.078C709.652 109.078 708.906 109.176 708.085 109.371V108.141C708.906 107.945 709.652 107.848 710.324 107.848C712.152 107.848 713.066 108.523 713.066 109.875V114H712.163L711.613 113.449C711.077 113.816 710.488 114 709.843 114C708.339 114 707.587 113.361 707.587 112.084ZM711.513 111.422C711.122 111.344 710.704 111.305 710.259 111.305C709.513 111.305 709.14 111.559 709.14 112.066C709.14 112.613 709.452 112.887 710.077 112.887C710.593 112.887 711.072 112.727 711.513 112.406V111.422ZM715.969 105.621V114H714.416V105.621H715.969ZM721.216 109.453C720.896 109.242 720.494 109.137 720.009 109.137C719.045 109.137 718.562 109.678 718.562 110.76C718.562 112.045 719.064 112.688 720.068 112.688C720.474 112.688 720.857 112.631 721.216 112.518V109.453ZM722.769 113.631C721.828 113.877 720.908 114 720.009 114C718.021 114 717.027 112.934 717.027 110.801C717.027 108.832 718 107.848 719.945 107.848C720.359 107.848 720.783 107.945 721.216 108.141V105.621H722.769V113.631ZM725.374 110.9C725.374 112.186 725.872 112.828 726.868 112.828C727.864 112.828 728.362 112.186 728.362 110.9C728.362 109.646 727.864 109.02 726.868 109.02C725.872 109.02 725.374 109.646 725.374 110.9ZM723.821 110.924C723.821 108.861 724.837 107.83 726.868 107.83C728.899 107.83 729.915 108.861 729.915 110.924C729.915 112.982 728.899 114.012 726.868 114.012C724.844 114.012 723.829 112.982 723.821 110.924ZM736.305 107.848V114H734.752V109.078H732.519V114H730.967V107.549C730.967 105.982 731.889 105.199 733.732 105.199C734.392 105.199 735.055 105.336 735.719 105.609V106.84C735.117 106.566 734.492 106.43 733.844 106.43C732.961 106.43 732.519 106.787 732.519 107.502V107.848H736.305ZM741.593 109.242C741.339 109.148 740.978 109.102 740.509 109.102C739.435 109.102 738.897 109.693 738.897 110.877C738.897 112.021 739.36 112.594 740.286 112.594C740.731 112.594 741.167 112.488 741.593 112.277V109.242ZM743.145 113.531C743.145 115.328 742.065 116.227 739.905 116.227C739.147 116.227 738.476 116.129 737.89 115.934V114.703C738.487 114.898 739.163 114.996 739.917 114.996C741.034 114.996 741.593 114.527 741.593 113.59C741.132 113.785 740.636 113.883 740.104 113.883C738.276 113.883 737.362 112.885 737.362 110.889C737.362 108.861 738.427 107.848 740.556 107.848C741.27 107.848 742.134 107.932 743.145 108.1V113.531ZM750.033 107.848V114H748.82L748.633 113.215C747.926 113.738 747.176 114 746.383 114C745.125 114 744.496 113.256 744.496 111.768V107.848H746.049V111.727C746.049 112.406 746.346 112.746 746.94 112.746C747.443 112.746 747.957 112.545 748.481 112.143V107.848H750.033ZM753.98 107.848C755.847 107.848 756.78 108.801 756.78 110.707C756.78 110.961 756.763 111.215 756.728 111.469H752.644C752.644 112.336 753.28 112.77 754.554 112.77C755.175 112.77 755.796 112.711 756.417 112.594V113.824C755.874 113.941 755.214 114 754.437 114C752.206 114 751.091 112.951 751.091 110.854C751.091 108.85 752.054 107.848 753.98 107.848ZM752.644 110.391H755.269V110.344C755.269 109.492 754.839 109.066 753.98 109.066C753.159 109.066 752.714 109.508 752.644 110.391ZM759.379 105.621V106.852H757.826V105.621H759.379ZM759.379 107.848V114H757.826V107.848H759.379ZM760.73 114V107.848H761.931L762.124 108.633C762.664 108.109 763.234 107.848 763.835 107.848V109.102C763.257 109.102 762.74 109.342 762.283 109.822V114H760.73ZM767.19 107.848C769.057 107.848 769.991 108.801 769.991 110.707C769.991 110.961 769.973 111.215 769.938 111.469H765.854C765.854 112.336 766.491 112.77 767.764 112.77C768.385 112.77 769.006 112.711 769.628 112.594V113.824C769.085 113.941 768.424 114 767.647 114C765.417 114 764.301 112.951 764.301 110.854C764.301 108.85 765.264 107.848 767.19 107.848ZM765.854 110.391H768.479V110.344C768.479 109.492 768.049 109.066 767.19 109.066C766.37 109.066 765.924 109.508 765.854 110.391ZM774.933 109.453C774.613 109.242 774.211 109.137 773.726 109.137C772.761 109.137 772.279 109.678 772.279 110.76C772.279 112.045 772.781 112.688 773.785 112.688C774.191 112.688 774.574 112.631 774.933 112.518V109.453ZM776.486 113.631C775.545 113.877 774.625 114 773.726 114C771.738 114 770.744 112.934 770.744 110.801C770.744 108.832 771.716 107.848 773.662 107.848C774.076 107.848 774.5 107.945 774.933 108.141V105.621H776.486V113.631ZM779.091 110.9C779.091 112.186 779.589 112.828 780.585 112.828C781.581 112.828 782.079 112.186 782.079 110.9C782.079 109.646 781.581 109.02 780.585 109.02C779.589 109.02 779.091 109.646 779.091 110.9ZM777.538 110.924C777.538 108.861 778.554 107.83 780.585 107.83C782.616 107.83 783.632 108.861 783.632 110.924C783.632 112.982 782.616 114.012 780.585 114.012C778.561 114.012 777.546 112.982 777.538 110.924Z" fill="#E4D9D9"/>
<path d="M675.993 99C678.626 99 681.258 99 683.891 99C684.571 99 685 99.4286 685 100.111C685 105.371 685 110.632 685 115.893C685 116.564 684.571 117 683.909 117C678.636 117 673.364 117 668.091 117C667.436 117 667 116.564 667 115.907C667 110.636 667 105.361 667 100.089C667 99.4321 667.436 99 668.091 99C670.728 99 673.36 99 675.993 99ZM674.7 112.143C674.646 112.129 674.618 112.121 674.59 112.118C674.065 112.029 673.555 111.9 673.07 111.661C672.003 111.129 671.365 110.279 671.256 109.086C671.202 108.504 671.238 107.907 671.284 107.321C671.337 106.668 671.521 106.05 672.014 105.568C672.053 105.529 672.056 105.414 672.035 105.346C671.815 104.729 671.837 104.111 672.028 103.489C672.102 103.254 672.113 103.25 672.354 103.332C672.776 103.471 673.119 103.725 673.41 104.054C673.566 104.229 673.711 104.414 673.831 104.561C674.08 104.468 674.303 104.357 674.54 104.304C675.309 104.125 676.089 104.154 676.868 104.2C677.354 104.229 677.832 104.296 678.236 104.589C678.413 104.379 678.58 104.164 678.767 103.968C679.058 103.664 679.398 103.432 679.806 103.314C679.937 103.275 680.025 103.293 680.075 103.446C680.277 104.082 680.312 104.721 680.068 105.35C680.018 105.475 680.046 105.55 680.128 105.629C680.447 105.936 680.62 106.321 680.716 106.746C680.897 107.554 680.939 108.375 680.837 109.196C680.73 110.05 680.333 110.757 679.643 111.286C679.072 111.725 678.417 111.961 677.715 112.082C677.612 112.1 677.513 112.121 677.4 112.143C677.697 112.575 677.8 113.039 677.807 113.529C677.818 114.446 677.811 115.361 677.811 116.279C677.811 116.346 677.811 116.418 677.811 116.507C677.896 116.507 677.959 116.507 678.023 116.507C679.979 116.507 681.931 116.507 683.887 116.507C684.309 116.507 684.515 116.296 684.515 115.868C684.515 110.625 684.515 105.382 684.515 100.136C684.515 99.7107 684.306 99.5036 683.884 99.5036C678.622 99.5 673.374 99.5 668.123 99.5C667.702 99.5 667.496 99.7071 667.496 100.136C667.496 105.379 667.496 110.621 667.496 115.868C667.496 116.293 667.702 116.504 668.127 116.504C670.111 116.504 672.095 116.504 674.08 116.504C674.143 116.504 674.207 116.504 674.271 116.504C674.271 115.929 674.271 115.371 674.271 114.811C674.065 114.832 673.87 114.864 673.679 114.875C672.641 114.936 671.812 114.568 671.302 113.629C670.951 112.986 670.646 112.321 670.019 111.893C669.987 111.871 669.944 111.8 669.959 111.779C669.98 111.739 670.037 111.696 670.079 111.693C670.242 111.689 670.412 111.679 670.572 111.711C671.046 111.807 671.362 112.118 671.631 112.511C671.812 112.775 672.014 113.05 672.265 113.243C672.825 113.671 673.47 113.718 674.136 113.521C674.235 113.493 674.289 113.446 674.303 113.329C674.338 112.911 674.42 112.504 674.7 112.143Z" fill="#69B5E0"/>
<path d="M694.67 37.2422C694.416 37.1484 694.055 37.1016 693.586 37.1016C692.512 37.1016 691.975 37.6934 691.975 38.877C691.975 40.0215 692.438 40.5938 693.363 40.5938C693.809 40.5938 694.244 40.4883 694.67 40.2773V37.2422ZM696.223 41.5312C696.223 43.3281 695.143 44.2266 692.982 44.2266C692.225 44.2266 691.553 44.1289 690.967 43.9336V42.7031C691.564 42.8984 692.24 42.9961 692.994 42.9961C694.111 42.9961 694.67 42.5273 694.67 41.5898C694.209 41.7852 693.713 41.8828 693.182 41.8828C691.354 41.8828 690.439 40.8848 690.439 38.8887C690.439 36.8613 691.504 35.8477 693.633 35.8477C694.348 35.8477 695.211 35.9316 696.223 36.0996V41.5312ZM700.169 35.8477C702.036 35.8477 702.97 36.8008 702.97 38.707C702.97 38.9609 702.952 39.2148 702.917 39.4688H698.833C698.833 40.3359 699.47 40.7695 700.743 40.7695C701.364 40.7695 701.985 40.7109 702.607 40.5938V41.8242C702.064 41.9414 701.403 42 700.626 42C698.396 42 697.28 40.9512 697.28 38.8535C697.28 36.8496 698.243 35.8477 700.169 35.8477ZM698.833 38.3906H701.458V38.3438C701.458 37.4922 701.028 37.0664 700.169 37.0664C699.349 37.0664 698.903 37.5078 698.833 38.3906ZM704.016 42V35.8477H705.217L705.41 36.6328C705.949 36.1094 706.52 35.8477 707.121 35.8477V37.1016C706.543 37.1016 706.026 37.3418 705.569 37.8223V42H704.016ZM707.587 40.084C707.587 38.8613 708.478 38.25 710.259 38.25C710.677 38.25 711.095 38.2891 711.513 38.3672V37.9043C711.513 37.3535 711.117 37.0781 710.324 37.0781C709.652 37.0781 708.906 37.1758 708.085 37.3711V36.1406C708.906 35.9453 709.652 35.8477 710.324 35.8477C712.152 35.8477 713.066 36.5234 713.066 37.875V42H712.163L711.613 41.4492C711.077 41.8164 710.488 42 709.843 42C708.339 42 707.587 41.3613 707.587 40.084ZM711.513 39.4219C711.122 39.3438 710.704 39.3047 710.259 39.3047C709.513 39.3047 709.14 39.5586 709.14 40.0664C709.14 40.6133 709.452 40.8867 710.077 40.8867C710.593 40.8867 711.072 40.7266 711.513 40.4062V39.4219ZM715.969 33.6211V42H714.416V33.6211H715.969ZM721.216 37.4531C720.896 37.2422 720.494 37.1367 720.009 37.1367C719.045 37.1367 718.562 37.6777 718.562 38.7598C718.562 40.0449 719.064 40.6875 720.068 40.6875C720.474 40.6875 720.857 40.6309 721.216 40.5176V37.4531ZM722.769 41.6309C721.828 41.877 720.908 42 720.009 42C718.021 42 717.027 40.9336 717.027 38.8008C717.027 36.832 718 35.8477 719.945 35.8477C720.359 35.8477 720.783 35.9453 721.216 36.1406V33.6211H722.769V41.6309ZM725.374 38.9004C725.374 40.1855 725.872 40.8281 726.868 40.8281C727.864 40.8281 728.362 40.1855 728.362 38.9004C728.362 37.6465 727.864 37.0195 726.868 37.0195C725.872 37.0195 725.374 37.6465 725.374 38.9004ZM723.821 38.9238C723.821 36.8613 724.837 35.8301 726.868 35.8301C728.899 35.8301 729.915 36.8613 729.915 38.9238C729.915 40.9824 728.899 42.0117 726.868 42.0117C724.844 42.0117 723.829 40.9824 723.821 38.9238ZM736.305 35.8477V42H734.752V37.0781H732.519V42H730.967V35.5488C730.967 33.9824 731.889 33.1992 733.732 33.1992C734.392 33.1992 735.055 33.3359 735.719 33.6094V34.8398C735.117 34.5664 734.492 34.4297 733.844 34.4297C732.961 34.4297 732.519 34.7871 732.519 35.502V35.8477H736.305ZM741.593 37.2422C741.339 37.1484 740.978 37.1016 740.509 37.1016C739.435 37.1016 738.897 37.6934 738.897 38.877C738.897 40.0215 739.36 40.5938 740.286 40.5938C740.731 40.5938 741.167 40.4883 741.593 40.2773V37.2422ZM743.145 41.5312C743.145 43.3281 742.065 44.2266 739.905 44.2266C739.147 44.2266 738.476 44.1289 737.89 43.9336V42.7031C738.487 42.8984 739.163 42.9961 739.917 42.9961C741.034 42.9961 741.593 42.5273 741.593 41.5898C741.132 41.7852 740.636 41.8828 740.104 41.8828C738.276 41.8828 737.362 40.8848 737.362 38.8887C737.362 36.8613 738.427 35.8477 740.556 35.8477C741.27 35.8477 742.134 35.9316 743.145 36.0996V41.5312ZM750.033 35.8477V42H748.82L748.633 41.2148C747.926 41.7383 747.176 42 746.383 42C745.125 42 744.496 41.2559 744.496 39.7676V35.8477H746.049V39.7266C746.049 40.4062 746.346 40.7461 746.94 40.7461C747.443 40.7461 747.957 40.5449 748.481 40.1426V35.8477H750.033ZM753.98 35.8477C755.847 35.8477 756.78 36.8008 756.78 38.707C756.78 38.9609 756.763 39.2148 756.728 39.4688H752.644C752.644 40.3359 753.28 40.7695 754.554 40.7695C755.175 40.7695 755.796 40.7109 756.417 40.5938V41.8242C755.874 41.9414 755.214 42 754.437 42C752.206 42 751.091 40.9512 751.091 38.8535C751.091 36.8496 752.054 35.8477 753.98 35.8477ZM752.644 38.3906H755.269V38.3438C755.269 37.4922 754.839 37.0664 753.98 37.0664C753.159 37.0664 752.714 37.5078 752.644 38.3906ZM759.379 33.6211V34.8516H757.826V33.6211H759.379ZM759.379 35.8477V42H757.826V35.8477H759.379ZM760.73 42V35.8477H761.931L762.124 36.6328C762.664 36.1094 763.234 35.8477 763.835 35.8477V37.1016C763.257 37.1016 762.74 37.3418 762.283 37.8223V42H760.73ZM767.19 35.8477C769.057 35.8477 769.991 36.8008 769.991 38.707C769.991 38.9609 769.973 39.2148 769.938 39.4688H765.854C765.854 40.3359 766.491 40.7695 767.764 40.7695C768.385 40.7695 769.006 40.7109 769.628 40.5938V41.8242C769.085 41.9414 768.424 42 767.647 42C765.417 42 764.301 40.9512 764.301 38.8535C764.301 36.8496 765.264 35.8477 767.19 35.8477ZM765.854 38.3906H768.479V38.3438C768.479 37.4922 768.049 37.0664 767.19 37.0664C766.37 37.0664 765.924 37.5078 765.854 38.3906ZM774.933 37.4531C774.613 37.2422 774.211 37.1367 773.726 37.1367C772.761 37.1367 772.279 37.6777 772.279 38.7598C772.279 40.0449 772.781 40.6875 773.785 40.6875C774.191 40.6875 774.574 40.6309 774.933 40.5176V37.4531ZM776.486 41.6309C775.545 41.877 774.625 42 773.726 42C771.738 42 770.744 40.9336 770.744 38.8008C770.744 36.832 771.716 35.8477 773.662 35.8477C774.076 35.8477 774.5 35.9453 774.933 36.1406V33.6211H776.486V41.6309ZM779.091 38.9004C779.091 40.1855 779.589 40.8281 780.585 40.8281C781.581 40.8281 782.079 40.1855 782.079 38.9004C782.079 37.6465 781.581 37.0195 780.585 37.0195C779.589 37.0195 779.091 37.6465 779.091 38.9004ZM777.538 38.9238C777.538 36.8613 778.554 35.8301 780.585 35.8301C782.616 35.8301 783.632 36.8613 783.632 38.9238C783.632 40.9824 782.616 42.0117 780.585 42.0117C778.561 42.0117 777.546 40.9824 777.538 38.9238Z" fill="#E4D9D9"/>
<path d="M669.43 27C668.77 27 668.17 27.2441 667.72 27.7017C667.24 28.1898 667 28.8 667 29.4406C667 30.1118 667.27 30.722 667.72 31.1796C668.17 31.6373 668.8 31.9118 669.4 31.8813C669.4 31.8813 669.43 31.8813 669.46 31.8813C670.06 31.8813 670.63 31.6373 671.08 31.1796C671.53 30.722 671.8 30.1118 671.8 29.4406C671.83 28.8 671.56 28.1898 671.11 27.7322C670.66 27.244 670.06 27 669.43 27ZM670.66 30.7525C670.33 31.0881 669.88 31.3017 669.4 31.2712C668.95 31.2712 668.47 31.0881 668.14 30.7525C667.78 30.4169 667.6 29.9288 667.6 29.4407C667.6 28.9526 667.78 28.4949 668.14 28.1288C668.47 27.7932 668.92 27.6102 669.43 27.6102C669.88 27.6102 670.33 27.7932 670.66 28.1288C671.02 28.4949 671.2 28.9526 671.2 29.4407C671.2 29.9288 671.02 30.4169 670.66 30.7525Z" fill="#69B5E0"/>
<path d="M670.6 32.4915H668.17C667.69 32.4915 667.3 32.8881 667.3 33.4068V44.0847C667.3 44.5728 667.72 45 668.2 45H670.6C671.08 45 671.5 44.5728 671.5 44.1152V33.4068C671.5 32.9186 671.08 32.4915 670.6 32.4915ZM670.9 44.1152C670.9 44.2678 670.75 44.3898 670.6 44.3898H668.2C668.05 44.3898 667.9 44.2372 667.9 44.0847V33.4068C667.9 33.2542 668.02 33.1017 668.17 33.1017H670.6C670.75 33.1017 670.9 33.2542 670.9 33.4068V44.1152Z" fill="#69B5E0"/>
<path d="M680.8 32.1864H680.17C679 32.1864 677.89 32.7051 677.17 33.5288V33.1017C677.17 32.7966 676.87 32.4915 676.57 32.4915H673.57C673.3 32.4915 672.97 32.7356 672.97 33.0711V44.4507C672.97 44.7863 673.3 44.9999 673.57 44.9999H676.87C677.14 44.9999 677.47 44.7863 677.47 44.4507V37.8609C677.47 36.8541 678.19 36.0609 679.12 36.0609C679.6 36.0609 680.05 36.244 680.38 36.5796C680.68 36.8541 680.8 37.2813 680.8 37.8304V44.3897C680.8 44.6948 681.1 44.9999 681.4 44.9999H684.4C684.7 44.9999 685 44.6949 685 44.3897V36.5186C685 34.0779 683.17 32.1864 680.8 32.1864ZM684.4 44.3592L684.37 44.3897H681.43L681.4 37.8305C681.4 37.0983 681.22 36.5491 680.83 36.1525C680.38 35.6949 679.78 35.4508 679.15 35.4508C677.89 35.4813 676.9 36.5186 676.9 37.861V44.3897H673.6V33.1017H676.57L676.6 33.1321V35.0542L677.41 34.2305L677.44 34.2C678.04 33.3457 679.09 32.7966 680.2 32.7966H680.83C682.84 32.7966 684.4 34.444 684.4 36.5186V44.3592V44.3592Z" fill="#69B5E0"/>
<rect x="358" y="152" width="442" height="6" fill="#69B5E1"/>
</svg>
